<svg xmlns="http://www.w3.org/2000/svg" width="1200" height="700" viewBox="0 0 1200 700" role="img" aria-labelledby="title desc">
  <title id="title">AI Chess web app preview</title>
  <desc id="desc">A preview of the chess web interface with a board, move controls, account panel, and leaderboard.</desc>
  <rect width="1200" height="700" fill="#101418"/>
  <rect x="48" y="44" width="1104" height="612" rx="14" fill="#f7f4ed"/>
  <rect x="48" y="44" width="1104" height="62" rx="14" fill="#1f2933"/>
  <text x="88" y="83" font-family="Arial, Helvetica, sans-serif" font-size="26" font-weight="700" fill="#f7f4ed">AI Chess</text>
  <text x="998" y="82" font-family="Arial, Helvetica, sans-serif" font-size="16" fill="#d8dee6">Docker + MySQL</text>

  <rect x="84" y="142" width="552" height="552" rx="8" fill="#1f2933"/>
  <g transform="translate(100 158)">
    <rect width="520" height="520" fill="#b88b5f"/>
    <g fill="#ead7b7">
      <rect x="0" y="0" width="65" height="65"/>
      <rect x="130" y="0" width="65" height="65"/>
      <rect x="260" y="0" width="65" height="65"/>
      <rect x="390" y="0" width="65" height="65"/>
      <rect x="65" y="65" width="65" height="65"/>
      <rect x="195" y="65" width="65" height="65"/>
      <rect x="325" y="65" width="65" height="65"/>
      <rect x="455" y="65" width="65" height="65"/>
      <rect x="0" y="130" width="65" height="65"/>
      <rect x="130" y="130" width="65" height="65"/>
      <rect x="260" y="130" width="65" height="65"/>
      <rect x="390" y="130" width="65" height="65"/>
      <rect x="65" y="195" width="65" height="65"/>
      <rect x="195" y="195" width="65" height="65"/>
      <rect x="325" y="195" width="65" height="65"/>
      <rect x="455" y="195" width="65" height="65"/>
      <rect x="0" y="260" width="65" height="65"/>
      <rect x="130" y="260" width="65" height="65"/>
      <rect x="260" y="260" width="65" height="65"/>
      <rect x="390" y="260" width="65" height="65"/>
      <rect x="65" y="325" width="65" height="65"/>
      <rect x="195" y="325" width="65" height="65"/>
      <rect x="325" y="325" width="65" height="65"/>
      <rect x="455" y="325" width="65" height="65"/>
      <rect x="0" y="390" width="65" height="65"/>
      <rect x="130" y="390" width="65" height="65"/>
      <rect x="260" y="390" width="65" height="65"/>
      <rect x="390" y="390" width="65" height="65"/>
      <rect x="65" y="455" width="65" height="65"/>
      <rect x="195" y="455" width="65" height="65"/>
      <rect x="325" y="455" width="65" height="65"/>
      <rect x="455" y="455" width="65" height="65"/>
    </g>
    <g font-family="Georgia, 'Times New Roman', serif" font-size="42" text-anchor="middle" dominant-baseline="middle">
      <text x="32" y="32" fill="#18202a">♜</text><text x="97" y="32" fill="#18202a">♞</text><text x="162" y="32" fill="#18202a">♝</text><text x="227" y="32" fill="#18202a">♛</text><text x="292" y="32" fill="#18202a">♚</text><text x="357" y="32" fill="#18202a">♝</text><text x="422" y="32" fill="#18202a">♞</text><text x="487" y="32" fill="#18202a">♜</text>
      <text x="32" y="97" fill="#18202a">♟</text><text x="97" y="97" fill="#18202a">♟</text><text x="162" y="97" fill="#18202a">♟</text><text x="227" y="97" fill="#18202a">♟</text><text x="292" y="97" fill="#18202a">♟</text><text x="357" y="97" fill="#18202a">♟</text><text x="422" y="97" fill="#18202a">♟</text><text x="487" y="97" fill="#18202a">♟</text>
      <text x="227" y="292" fill="#f9fafb">♙</text><text x="292" y="357" fill="#f9fafb">♘</text>
      <text x="32" y="422" fill="#f9fafb">♙</text><text x="97" y="422" fill="#f9fafb">♙</text><text x="162" y="422" fill="#f9fafb">♙</text><text x="292" y="422" fill="#f9fafb">♙</text><text x="357" y="422" fill="#f9fafb">♙</text><text x="422" y="422" fill="#f9fafb">♙</text><text x="487" y="422" fill="#f9fafb">♙</text>
      <text x="32" y="487" fill="#f9fafb">♖</text><text x="97" y="487" fill="#f9fafb">♘</text><text x="162" y="487" fill="#f9fafb">♗</text><text x="227" y="487" fill="#f9fafb">♕</text><text x="292" y="487" fill="#f9fafb">♔</text><text x="357" y="487" fill="#f9fafb">♗</text><text x="422" y="487" fill="#f9fafb">♘</text><text x="487" y="487" fill="#f9fafb">♖</text>
    </g>
    <circle cx="227" cy="227" r="14" fill="#59b37d" opacity="0.9"/>
    <circle cx="227" cy="162" r="14" fill="#59b37d" opacity="0.9"/>
  </g>

  <rect x="690" y="142" width="410" height="150" rx="8" fill="#ffffff" stroke="#dad5cb"/>
  <text x="720" y="182" font-family="Arial, Helvetica, sans-serif" font-size="22" font-weight="700" fill="#1f2933">Game Modes</text>
  <text x="720" y="218" font-family="Arial, Helvetica, sans-serif" font-size="16" fill="#52606d">Player vs Player, Online, Random, Minimax, ML AI</text>
  <rect x="720" y="244" width="118" height="30" rx="6" fill="#1f7a5a"/>
  <text x="779" y="265" font-family="Arial, Helvetica, sans-serif" font-size="14" font-weight="700" text-anchor="middle" fill="#ffffff">Start Match</text>

  <rect x="690" y="322" width="410" height="128" rx="8" fill="#ffffff" stroke="#dad5cb"/>
  <text x="720" y="362" font-family="Arial, Helvetica, sans-serif" font-size="22" font-weight="700" fill="#1f2933">Account Stats</text>
  <text x="720" y="398" font-family="Arial, Helvetica, sans-serif" font-size="16" fill="#52606d">Wins 24  ·  Losses 12  ·  Elo 1642</text>
  <rect x="720" y="418" width="340" height="10" rx="5" fill="#e4e0d7"/>
  <rect x="720" y="418" width="235" height="10" rx="5" fill="#2f80ed"/>

  <rect x="690" y="480" width="410" height="124" rx="8" fill="#ffffff" stroke="#dad5cb"/>
  <text x="720" y="520" font-family="Arial, Helvetica, sans-serif" font-size="22" font-weight="700" fill="#1f2933">Leaderboard</text>
  <text x="720" y="555" font-family="Arial, Helvetica, sans-serif" font-size="16" fill="#52606d">1. tuyen-coder  ·  1810</text>
  <text x="720" y="585" font-family="Arial, Helvetica, sans-serif" font-size="16" fill="#52606d">2. chess_app  ·  1642</text>
</svg>
